<?xml version="1.0"?>
<svg xmlns="http://www.w3.org/2000/svg" xmlns:xlink="http://www.w3.org/1999/xlink" version="1.1" id="Capa_1" x="0px" y="0px" viewBox="0 0 464 464" style="enable-background:new 0 0 464 464;" xml:space="preserve" width="512px" height="512px" class=""><g><g>
	<path style="fill:#AD834C" d="M8,372c-4.8,0-8-3.2-8-8V252c0-4.8,3.2-8,8-8s8,3.2,8,8v112C16,368.8,12.8,372,8,372z" data-original="#AD834C" class=""/>
	<path style="fill:#AD834C" d="M104,372c-4.8,0-8-3.2-8-8V252c0-4.8,3.2-8,8-8s8,3.2,8,8v112C112,368.8,108.8,372,104,372z" data-original="#AD834C" class=""/>
	<path style="fill:#AD834C" d="M456,372c-4.8,0-8-3.2-8-8V252c0-4.8,3.2-8,8-8s8,3.2,8,8v112C464,368.8,460.8,372,456,372z" data-original="#AD834C" class=""/>
	<path style="fill:#AD834C" d="M360,372c-4.8,0-8-3.2-8-8V252c0-4.8,3.2-8,8-8s8,3.2,8,8v112C368,368.8,364.8,372,360,372z" data-original="#AD834C" class=""/>
	<path style="fill:#AD834C" d="M232,340c-4.8,0-8-3.2-8-8V212c0-4.8,3.2-8,8-8c4.8,0,8,3.2,8,8v120C240,336.8,236.8,340,232,340z" data-original="#AD834C" class=""/>
</g><path style="fill:#01761B" d="M200,332h64c8.8,0,16,7.2,16,16v8c0,4.8-3.2,8-8,8h-80c-4.8,0-8-3.2-8-8v-8  C184,339.2,191.2,332,200,332z" data-original="#826239" class="active-path" data-old_color="#FF4700"/><path style="fill:#F3041F" d="M8,92h8c8.8,0,16,7.2,16,16v112l0,0H0l0,0V100C0,95.2,3.2,92,8,92z" data-original="#FFDE61" class="" data-old_color="#f3041f"/><path style="fill:#01761B" d="M0,220h96c8.8,0,16,7.2,16,16v16l0,0H0l0,0V220L0,220z" data-original="#418BCC" class="" data-old_color="#01761b"/><path style="fill:#F3041F" d="M464,220h-32l0,0V108c0-8.8,7.2-16,16-16h8c4.8,0,8,3.2,8,8V220L464,220z" data-original="#FFDE61" class="" data-old_color="#f3041f"/><g>
	<path style="fill:#01761B" d="M464,252H352l0,0v-16c0-8.8,7.2-16,16-16h96l0,0V252L464,252z" data-original="#418BCC" class="" data-old_color="#01761b"/>
	<path style="fill:#01761B" d="M200,180v16c0,8.8,7.2,16,16,16h32c8.8,0,16-7.2,16-16v-16" data-original="#418BCC" class="" data-old_color="#01761b"/>
</g><path style="fill:#F3041F" d="M128,148h208c4.8,0,8,3.2,8,8v14.4c0,9.6-8,17.6-17.6,17.6H137.6c-9.6,0-17.6-8-17.6-17.6V156  C120,151.2,123.2,148,128,148z" data-original="#FFDE61" class="" data-old_color="#f3041f"/></g> </svg>
